<?xml version="1.0" standalone="no"?>
<!DOCTYPE svg PUBLIC "-//W3C//DTD SVG 20010904//EN"
 "http://www.w3.org/TR/2001/REC-SVG-20010904/DTD/svg10.dtd">
<svg version="1.0" xmlns="http://www.w3.org/2000/svg"
 width="16.000000pt" height="16.000000pt" viewBox="0 0 16.000000 16.000000"
 preserveAspectRatio="xMidYMid meet">
<metadata>
Created by potrace 1.11, written by Peter Selinger 2001-2013
</metadata>
<g transform="translate(0.000000,16.000000) scale(0.003125,-0.003125)"
fill="#000000" stroke="none">
<path d="M2738 4890 c112 -111 202 -206 200 -210 -3 -8 -105 -117 -331 -353
-26 -27 -46 -51 -45 -52 2 -2 50 -6 108 -9 140 -9 181 -15 331 -50 64 -16 221
-75 304 -115 95 -47 251 -143 305 -190 14 -11 45 -38 70 -59 112 -94 249 -254
330 -387 114 -185 210 -444 235 -630 3 -22 8 -62 12 -90 17 -133 1 -399 -33
-545 -3 -14 -7 -32 -9 -41 -2 -8 -20 -66 -40 -127 -175 -525 -605 -935 -1145
-1093 l-75 -22 -223 -221 c-122 -121 -221 -227 -220 -234 2 -7 86 -96 188
-197 146 -146 191 -185 211 -185 65 0 338 63 459 106 166 59 350 144 464 212
37 23 70 42 72 42 3 0 10 4 17 10 7 5 48 35 92 66 179 126 374 308 509 476 73
89 216 300 216 316 0 6 4 12 8 14 12 4 135 259 171 353 27 72 66 191 77 234 2
9 8 36 15 61 72 293 92 619 54 910 -11 88 -18 131 -30 188 -3 12 -7 32 -10 45
-38 180 -108 380 -193 554 -49 99 -101 194 -118 213 -7 8 -13 20 -15 25 -3 19
-137 206 -199 279 -142 166 -250 268 -425 401 -172 131 -336 225 -545 313 -87
36 -229 86 -276 97 -10 2 -44 11 -74 19 -30 8 -66 17 -80 20 -14 2 -50 10 -80
16 -30 6 -77 13 -105 16 -27 3 -61 7 -75 10 -14 3 -88 7 -165 11 l-139 5 202
-202z"/>
<path d="M2190 5063 c-273 -44 -528 -127 -758 -245 -104 -53 -271 -154 -337
-203 -166 -123 -368 -314 -486 -460 -60 -74 -209 -287 -209 -298 0 -3 -20 -40
-45 -81 -25 -42 -46 -79 -46 -84 -8 -32 -13 -42 -20 -42 -5 0 -9 -8 -9 -18 0
-10 -4 -22 -9 -27 -21 -24 -132 -337 -146 -413 -2 -12 -6 -30 -9 -40 -3 -9 -7
-28 -10 -42 -3 -14 -7 -36 -10 -50 -13 -57 -26 -156 -41 -295 -10 -93 -4 -384
10 -485 3 -25 8 -61 10 -80 2 -19 6 -42 9 -50 3 -8 7 -31 10 -50 10 -61 17
-93 32 -150 8 -30 16 -62 18 -70 9 -38 69 -209 87 -247 10 -24 19 -45 19 -48
0 -2 19 -44 42 -92 273 -569 759 -1026 1333 -1255 134 -54 306 -107 395 -123
33 -5 67 -13 88 -19 9 -3 37 -7 62 -10 25 -3 55 -8 67 -10 54 -11 321 -26 339
-19 6 2 -79 93 -188 202 -109 109 -198 201 -198 205 0 3 90 96 200 206 110
110 200 201 200 203 0 1 -35 3 -78 3 -106 2 -180 11 -297 35 -551 116 -1018
509 -1229 1036 -40 100 -90 289 -101 378 -4 33 -9 74 -11 90 -5 45 -5 286 0
315 2 14 7 52 11 85 3 33 10 76 15 95 5 19 11 46 14 60 11 61 72 233 115 325
197 416 563 742 995 886 90 31 108 36 156 45 25 5 72 51 322 316 64 67 119
126 124 130 9 10 -380 398 -397 397 -8 -1 -25 -4 -39 -6z"/>
</g>
</svg>
